<svg width="200" height="200" viewBox="0 0 200 200" fill="none" xmlns="http://www.w3.org/2000/svg">
<path d="M64.1026 43.5898L84.6154 38.4615L105.128 43.5898L115.385 51.2821L117.949 56.4103L94.8718 69.2308L87.1795 76.9231L58.9744 48.718L64.1026 43.5898Z" fill="#6C69C1"/>
<path d="M48.718 56.4103L43.5898 74.359L46.1539 92.3077L56.4103 110.256L61.5385 117.949L76.9231 89.7436L84.6154 79.4872L58.9744 48.718L48.718 56.4103Z" fill="#6C69C1"/>
<path d="M58.9743 115.464L74.359 94.8718L89.7436 76.9231L105.128 64.1026L120.513 56.4103L146.154 84.6154L156.41 100L161.538 115.464L156.41 133.333L138.462 148.718L117.949 153.846L100 148.718L84.6154 141.026L58.9743 115.464Z" fill="#98C4D5"/>
<path d="M120.513 56.4103C91.7949 27.6923 64.1026 41.0256 53.8462 51.2821C44.4445 58.9744 32.8205 83.0769 61.5385 117.949C97.4359 161.538 130.769 161.538 151.282 138.462C171.795 115.385 156.41 92.3077 120.513 56.4103Z" stroke="black"/>
<path d="M61.5385 117.949C69.7139 100.233 92.4415 63.1235 117.949 56.4102" stroke="black"/>
<circle cx="100" cy="100" r="99.5" stroke="black"/>
<path d="M37.7947 23.9162L87.1795 79.4872" stroke="black"/>
</svg>
