<svg width="312" height="117" viewBox="0 0 312 117" fill="none" xmlns="http://www.w3.org/2000/svg">
<path d="M16.8766 57.5L11.8766 49.5L8.37659 38.5L9.87659 30.5L12.8766 24L22.3766 18.5L34.8766 15L47.3766 18.5L57.3766 32.5L60.3766 49.5L66.8766 35.5L73.3766 29.5L81.8766 27L93.3766 30.5L103.877 41V49.5L101.877 57.5L95.3766 65.5L85.8766 72L90.3766 82.5L91.3766 94.5L87.8766 101L78.8766 108L63.8766 112.5H44.8766L6.87659 108L3.37659 92V76L8.37659 66.5L16.8766 57.5Z" fill="#6C69C1"/>
<path d="M50.3766 20.5L61.8766 12.5L76.8766 6.5L98.3766 3L118.377 5L135.877 10L154.377 23L166.877 43.5L171.377 69V83.5L166.877 94.5L151.377 106L120.877 113L90.3766 115L61.8766 113L83.3766 106L90.3766 98.5L91.8766 89.5L88.8766 81L85.8766 72.5L96.8766 64.5L103.377 54V42L96.8766 32.5L85.8766 27H76.8766L68.8766 32.5L60.8766 49.5L57.3766 32.5L50.3766 20.5Z" fill="#98C4D5"/>
<path d="M60.3766 50C64.0432 37.3334 76.2766 16.1 95.8766 32.5C115.477 48.9 97.3766 65.6667 85.8766 72C110.677 119.2 43.8766 116 7.37657 108.5M60.3766 50C60.3766 35.1667 50.8766 7.90007 24.8766 17.5001C-1.12341 27.1 9.70992 48.733 16.8766 58.3495M60.3766 50C47.4933 48.5686 29.3007 49.8343 16.8766 58.3495M7.37657 108.5C-1.92515 81.9802 4.7096 66.6886 16.8766 58.3495M7.37657 108.5C52.8934 115.002 138.549 120.377 162.877 98.2316M49.1431 21C57.6431 13.6667 91.5138 -6.66585 130.377 8.50006C171.377 24.5 173.21 64.5 169.377 86C168.898 90.7885 166.609 94.8339 162.877 98.2316M162.877 98.2316L214.658 86.9464C217.518 86.3231 220.48 86.3352 223.335 86.9819L269.987 97.5491C271.984 98.0014 274.038 98.1444 276.078 97.9732L311.5 95" stroke="black" stroke-width="5"/>
<circle cx="53.3766" cy="78" r="7" fill="black"/>
</svg>
