<!-- icon666.com - MILLIONS OF FREE VECTOR ICONS --><svg id="SVGRoot" viewBox="0 0 32 32" xmlns="http://www.w3.org/2000/svg"><path d="m18 4c-6.4824 0-11.77 5.1733-11.98 11.605l-2.3125-2.3125a1 1 0 0 0 -.67773-.29297 1 1 0 0 0 -.73633.29297 1 1 0 0 0 0 1.4141l4 4a1.0001 1.0001 0 0 0 1.4141 0l4-4a1 1 0 0 0 0-1.4141 1 1 0 0 0 -1.4141 0l-2.2715 2.2715c.22888-5.3298 4.591-9.5645 9.9785-9.5645 5.5347 0 10 4.4653 10 10s-4.4653 10-10 10c-3.3839 0-6.535-1.7088-8.3809-4.5449a1 1 0 0 0 -1.3848-.29297 1 1 0 0 0 -.29102 1.3828c2.2135 3.4011 5.9987 5.4551 10.057 5.4551 6.6156 0 12-5.3844 12-12s-5.3844-12-12-12z" font-feature-settings="normal" font-variant-alternates="normal" font-variant-caps="normal" font-variant-east-asian="normal" font-variant-ligatures="normal" font-variant-numeric="normal" font-variant-position="normal" font-variation-settings="normal" inline-size="0" isolation="auto" mix-blend-mode="normal" shape-margin="0" shape-padding="0" text-decoration-color="rgb(0,0,0)" text-decoration-line="none" text-decoration-style="solid" text-indent="0" text-orientation="mixed" text-transform="none" white-space="normal"></path></svg>